<?xml version="1.0" standalone="no"?>
<!DOCTYPE svg PUBLIC "-//W3C//DTD SVG 20010904//EN" "http://www.w3.org/TR/2001/REC-SVG-20010904/DTD/svg10.dtd">
<!-- Created using Krita: https://krita.org -->
<svg xmlns="http://www.w3.org/2000/svg" 
    xmlns:xlink="http://www.w3.org/1999/xlink"
    xmlns:krita="http://krita.org/namespaces/svg/krita"
    xmlns:sodipodi="http://sodipodi.sourceforge.net/DTD/sodipodi-0.dtd"
    width="841.92pt"
    height="841.92pt"
    viewBox="0 0 841.92 841.92">
<defs/>
<path id="shape0" transform="translate(395.039987289788, 430.541681062794)" fill="none" stroke="#000000" stroke-width="9.6" stroke-linecap="square" stroke-linejoin="bevel" d="M0 29.7783C61.12 -8.94169 149.44 -9.90169 264.96 26.8983"/><path id="shape1" transform="translate(420.839999001696, 522.269587802184)" fill="none" stroke="#000000" stroke-width="9.6" stroke-linecap="square" stroke-linejoin="bevel" d="M0 19.5304C46.96 -6.62959 114.68 -6.50959 203.16 19.8904"/><path id="shape2" transform="translate(421.919986424939, 544.319982486781)" fill="none" stroke="#000000" stroke-width="9.6" stroke-linecap="square" stroke-linejoin="bevel" d="M202.08 0C150.88 21.36 83.52 21.6 0 0.72"/><path id="shape3" transform="translate(393.479987339982, 461.879985139246)" fill="none" stroke="#000000" stroke-width="9.6" stroke-linecap="square" stroke-linejoin="bevel" d="M24.48 82.08C14.48 60.48 6.31999 33.12 0 0"/><path id="shape4" transform="translate(627.839979799568, 457.919985266657)" fill="none" stroke="#000000" stroke-width="9.6" stroke-linecap="square" stroke-linejoin="bevel" d="M0 84.96C13.2 69.84 25.08 41.52 35.64 0"/><path id="shape5" transform="translate(408.311755828567, 246.412580824223)" fill="none" stroke="#000000" stroke-width="9.6" stroke-linecap="square" stroke-linejoin="bevel" d="M0 0L5.44823 41.5874C60.4883 9.58742 130.568 9.58742 215.688 41.5874"/><path id="shape6" transform="translate(409.439986826476, 223.011177658851)" fill="none" stroke="#000000" stroke-width="9.6" stroke-linecap="square" stroke-linejoin="bevel" d="M0 22.7488C62.4 -9.25118 137.76 -7.49118 226.08 28.0288L220.677 64.9888"/><path id="shape7" transform="translate(584.279948560022, 288)" fill="none" stroke="#000000" stroke-width="9.6" stroke-linecap="square" stroke-linejoin="bevel" d="M43.92 0C31.92 74.4 17.28 124.2 0 149.4"/><path id="shape8" transform="translate(416.519963329603, 288)" fill="none" stroke="#000000" stroke-width="9.6" stroke-linecap="square" stroke-linejoin="bevel" d="M39.96 144C22.44 112 9.12 64 0 0"/><path id="shape9" transform="translate(506.159996809088, 540.719996591216)" fill="none" stroke="#000000" stroke-width="9.6" stroke-linecap="square" stroke-linejoin="bevel" d="M6.84 0L0 153.72"/><path id="shape10" transform="translate(538.199996607103, 539.999996595755)" fill="none" stroke="#000000" stroke-width="9.6" stroke-linecap="square" stroke-linejoin="bevel" d="M0 0L0 156.24"/><path id="shape11" transform="translate(548.159962685605, 121.919991700651)" fill="none" stroke="#000000" stroke-width="9.6" stroke-linecap="square" stroke-linejoin="bevel" d="M0 102.72C7.36 59.2 27.2 29.12 59.52 12.48C91.84 -4.16 125.6 -4.16 160.8 12.48C185.44 25.6 203.04 47.68 213.6 78.72C224.16 109.76 218.56 141.12 196.8 172.8C179.84 194.88 158.72 208.64 133.44 214.08C108.16 219.52 87.04 218.56 70.08 211.2"/>
</svg>
